# xmcd
#
# Track frame offsets:
# 183
# 21883
# 42753
# 59733
# 87258
# 122293
# 143050
# 160365
# 185808
# 216708
#
# Disc length: 3208 seconds
#
#
# Revision: 0
# Processed by: cddbd v1.5.1PL0 Copyright (c) Steve Scherf et al.
# Submitted via: FreeRIP 2.80 
#
DISCID=930c860a
DTITLE=Ruby Turner - 1986 BBC live Glastonbury festival
DYEAR=1986
DGENRE=Blues
TTITLE0=Get on without you
TTITLE1=Sexy
TTITLE2=Feel my love
TTITLE3=If your ready (Com go with me)
TTITLE4=I'd rather go blind
TTITLE5=Either way you loose
TTITLE6=On fire
TTITLE7=Easy on yourself
TTITLE8=Only women bleed
TTITLE9=Blue monday
EXTD=(c) 1986 BBC in agreement with Jive Records Ltd\n(c) 1994 Windsong in arr. w. BBC Enterprises
EXTT0=
EXTT1=
EXTT2=
EXTT3=
EXTT4=
EXTT5=
EXTT6=
EXTT7=
EXTT8=
EXTT9=
PLAYORDER=
